<mxfile host="app.diagrams.net" modified="2021-10-17T08:48:14.429Z" agent="5.0 (Windows NT 10.0; Win64; x64) AppleWebKit/537.36 (KHTML, like Gecko) Chrome/94.0.4606.81 Safari/537.36" etag="WuTzOzlRF94h4JOe5KzB" version="15.5.4" type="github">
  <diagram id="wdg7d6GIiMwj1WEckeHe" name="Page-1">
    <mxGraphModel dx="2259" dy="987" grid="1" gridSize="10" guides="1" tooltips="1" connect="1" arrows="1" fold="1" page="1" pageScale="1" pageWidth="827" pageHeight="1169" math="0" shadow="0">
      <root>
        <mxCell id="0" />
        <mxCell id="1" parent="0" />
        <mxCell id="QtLdcIYBbhYkDuSN89B0-1" value="" style="shape=table;html=1;whiteSpace=wrap;startSize=0;container=1;collapsible=0;childLayout=tableLayout;rounded=1;sketch=0;fontSize=16;" parent="1" vertex="1">
          <mxGeometry x="14" y="70" width="200" height="40" as="geometry" />
        </mxCell>
        <mxCell id="QtLdcIYBbhYkDuSN89B0-2" value="" style="shape=partialRectangle;html=1;whiteSpace=wrap;collapsible=0;dropTarget=0;pointerEvents=0;fillColor=none;top=0;left=0;bottom=0;right=0;points=[[0,0.5],[1,0.5]];portConstraint=eastwest;" parent="QtLdcIYBbhYkDuSN89B0-1" vertex="1">
          <mxGeometry width="200" height="40" as="geometry" />
        </mxCell>
        <mxCell id="QtLdcIYBbhYkDuSN89B0-3" value="&lt;font style=&quot;font-size: 15px&quot;&gt;31&lt;/font&gt;" style="shape=partialRectangle;html=1;whiteSpace=wrap;connectable=0;fillColor=none;top=0;left=0;bottom=0;right=0;overflow=hidden;pointerEvents=1;" parent="QtLdcIYBbhYkDuSN89B0-2" vertex="1">
          <mxGeometry width="40" height="40" as="geometry">
            <mxRectangle width="40" height="40" as="alternateBounds" />
          </mxGeometry>
        </mxCell>
        <mxCell id="QtLdcIYBbhYkDuSN89B0-4" value="&lt;font size=&quot;1&quot;&gt;&lt;span style=&quot;font-weight: normal ; font-size: 15px&quot;&gt;6&lt;/span&gt;&lt;/font&gt;" style="shape=partialRectangle;html=1;whiteSpace=wrap;connectable=0;fillColor=none;top=0;left=0;bottom=0;right=0;overflow=hidden;pointerEvents=1;fontStyle=1" parent="QtLdcIYBbhYkDuSN89B0-2" vertex="1">
          <mxGeometry x="40" width="40" height="40" as="geometry">
            <mxRectangle width="40" height="40" as="alternateBounds" />
          </mxGeometry>
        </mxCell>
        <mxCell id="QtLdcIYBbhYkDuSN89B0-5" value="&lt;font style=&quot;font-size: 20px&quot;&gt;...&lt;/font&gt;" style="shape=partialRectangle;html=1;whiteSpace=wrap;connectable=0;fillColor=none;top=0;left=0;bottom=0;right=0;overflow=hidden;pointerEvents=1;" parent="QtLdcIYBbhYkDuSN89B0-2" vertex="1">
          <mxGeometry x="80" width="40" height="40" as="geometry">
            <mxRectangle width="40" height="40" as="alternateBounds" />
          </mxGeometry>
        </mxCell>
        <mxCell id="QtLdcIYBbhYkDuSN89B0-14" value="&lt;font style=&quot;font-size: 15px&quot;&gt;87&lt;/font&gt;" style="shape=partialRectangle;html=1;whiteSpace=wrap;connectable=0;fillColor=none;top=0;left=0;bottom=0;right=0;overflow=hidden;pointerEvents=1;" parent="QtLdcIYBbhYkDuSN89B0-2" vertex="1">
          <mxGeometry x="120" width="40" height="40" as="geometry">
            <mxRectangle width="40" height="40" as="alternateBounds" />
          </mxGeometry>
        </mxCell>
        <mxCell id="QtLdcIYBbhYkDuSN89B0-15" value="&lt;font style=&quot;font-size: 15px&quot;&gt;16&lt;/font&gt;" style="shape=partialRectangle;html=1;whiteSpace=wrap;connectable=0;fillColor=none;top=0;left=0;bottom=0;right=0;overflow=hidden;pointerEvents=1;" parent="QtLdcIYBbhYkDuSN89B0-2" vertex="1">
          <mxGeometry x="160" width="40" height="40" as="geometry">
            <mxRectangle width="40" height="40" as="alternateBounds" />
          </mxGeometry>
        </mxCell>
        <mxCell id="rLPBgmUreou9VduvHPSA-52" value="" style="shape=table;html=1;whiteSpace=wrap;startSize=0;container=1;collapsible=0;childLayout=tableLayout;rounded=1;sketch=0;fontSize=16;" parent="1" vertex="1">
          <mxGeometry x="213" y="70" width="200" height="40" as="geometry" />
        </mxCell>
        <mxCell id="rLPBgmUreou9VduvHPSA-53" value="" style="shape=partialRectangle;html=1;whiteSpace=wrap;collapsible=0;dropTarget=0;pointerEvents=0;fillColor=none;top=0;left=0;bottom=0;right=0;points=[[0,0.5],[1,0.5]];portConstraint=eastwest;" parent="rLPBgmUreou9VduvHPSA-52" vertex="1">
          <mxGeometry width="200" height="40" as="geometry" />
        </mxCell>
        <mxCell id="rLPBgmUreou9VduvHPSA-54" value="&lt;font&gt;&lt;font style=&quot;font-size: 15px&quot;&gt;0.51&lt;/font&gt;&lt;br&gt;&lt;/font&gt;" style="shape=partialRectangle;html=1;whiteSpace=wrap;connectable=0;fillColor=none;top=0;left=0;bottom=0;right=0;overflow=hidden;pointerEvents=1;" parent="rLPBgmUreou9VduvHPSA-53" vertex="1">
          <mxGeometry width="40" height="40" as="geometry">
            <mxRectangle width="40" height="40" as="alternateBounds" />
          </mxGeometry>
        </mxCell>
        <mxCell id="rLPBgmUreou9VduvHPSA-55" value="&lt;font size=&quot;1&quot;&gt;&lt;span style=&quot;font-weight: normal ; font-size: 15px&quot;&gt;0.26&lt;/span&gt;&lt;/font&gt;" style="shape=partialRectangle;html=1;whiteSpace=wrap;connectable=0;fillColor=none;top=0;left=0;bottom=0;right=0;overflow=hidden;pointerEvents=1;fontStyle=1" parent="rLPBgmUreou9VduvHPSA-53" vertex="1">
          <mxGeometry x="40" width="40" height="40" as="geometry">
            <mxRectangle width="40" height="40" as="alternateBounds" />
          </mxGeometry>
        </mxCell>
        <mxCell id="rLPBgmUreou9VduvHPSA-56" value="&lt;font style=&quot;font-size: 15px&quot;&gt;-0.14&lt;/font&gt;" style="shape=partialRectangle;html=1;whiteSpace=wrap;connectable=0;fillColor=none;top=0;left=0;bottom=0;right=0;overflow=hidden;pointerEvents=1;" parent="rLPBgmUreou9VduvHPSA-53" vertex="1">
          <mxGeometry x="80" width="40" height="40" as="geometry">
            <mxRectangle width="40" height="40" as="alternateBounds" />
          </mxGeometry>
        </mxCell>
        <mxCell id="rLPBgmUreou9VduvHPSA-57" value="&lt;font style=&quot;font-size: 15px&quot;&gt;0.71&lt;/font&gt;" style="shape=partialRectangle;html=1;whiteSpace=wrap;connectable=0;fillColor=none;top=0;left=0;bottom=0;right=0;overflow=hidden;pointerEvents=1;" parent="rLPBgmUreou9VduvHPSA-53" vertex="1">
          <mxGeometry x="120" width="40" height="40" as="geometry">
            <mxRectangle width="40" height="40" as="alternateBounds" />
          </mxGeometry>
        </mxCell>
        <mxCell id="rLPBgmUreou9VduvHPSA-58" value="&lt;font style=&quot;font-size: 15px&quot;&gt;-0.25&lt;/font&gt;" style="shape=partialRectangle;html=1;whiteSpace=wrap;connectable=0;fillColor=none;top=0;left=0;bottom=0;right=0;overflow=hidden;pointerEvents=1;" parent="rLPBgmUreou9VduvHPSA-53" vertex="1">
          <mxGeometry x="160" width="40" height="40" as="geometry">
            <mxRectangle width="40" height="40" as="alternateBounds" />
          </mxGeometry>
        </mxCell>
        <mxCell id="rLPBgmUreou9VduvHPSA-116" value="" style="shape=table;html=1;whiteSpace=wrap;startSize=0;container=1;collapsible=0;childLayout=tableLayout;rounded=1;sketch=0;fontSize=16;" parent="1" vertex="1">
          <mxGeometry x="412" y="70" width="200" height="40" as="geometry" />
        </mxCell>
        <mxCell id="rLPBgmUreou9VduvHPSA-117" value="" style="shape=partialRectangle;html=1;whiteSpace=wrap;collapsible=0;dropTarget=0;pointerEvents=0;fillColor=none;top=0;left=0;bottom=0;right=0;points=[[0,0.5],[1,0.5]];portConstraint=eastwest;" parent="rLPBgmUreou9VduvHPSA-116" vertex="1">
          <mxGeometry width="200" height="40" as="geometry" />
        </mxCell>
        <mxCell id="rLPBgmUreou9VduvHPSA-118" value="&lt;font style=&quot;font-size: 15px&quot;&gt;65&lt;/font&gt;" style="shape=partialRectangle;html=1;whiteSpace=wrap;connectable=0;fillColor=none;top=0;left=0;bottom=0;right=0;overflow=hidden;pointerEvents=1;" parent="rLPBgmUreou9VduvHPSA-117" vertex="1">
          <mxGeometry width="40" height="40" as="geometry">
            <mxRectangle width="40" height="40" as="alternateBounds" />
          </mxGeometry>
        </mxCell>
        <mxCell id="rLPBgmUreou9VduvHPSA-119" value="&lt;font style=&quot;font-size: 14px&quot;&gt;&lt;span style=&quot;font-weight: normal ; font-size: 15px&quot;&gt;8&lt;/span&gt;&lt;/font&gt;" style="shape=partialRectangle;html=1;whiteSpace=wrap;connectable=0;fillColor=none;top=0;left=0;bottom=0;right=0;overflow=hidden;pointerEvents=1;fontStyle=1" parent="rLPBgmUreou9VduvHPSA-117" vertex="1">
          <mxGeometry x="40" width="40" height="40" as="geometry">
            <mxRectangle width="40" height="40" as="alternateBounds" />
          </mxGeometry>
        </mxCell>
        <mxCell id="rLPBgmUreou9VduvHPSA-120" value="&lt;font style=&quot;font-size: 20px&quot;&gt;...&lt;/font&gt;" style="shape=partialRectangle;html=1;whiteSpace=wrap;connectable=0;fillColor=none;top=0;left=0;bottom=0;right=0;overflow=hidden;pointerEvents=1;" parent="rLPBgmUreou9VduvHPSA-117" vertex="1">
          <mxGeometry x="80" width="40" height="40" as="geometry">
            <mxRectangle width="40" height="40" as="alternateBounds" />
          </mxGeometry>
        </mxCell>
        <mxCell id="rLPBgmUreou9VduvHPSA-121" value="&lt;font style=&quot;font-size: 15px&quot;&gt;32&lt;/font&gt;" style="shape=partialRectangle;html=1;whiteSpace=wrap;connectable=0;fillColor=none;top=0;left=0;bottom=0;right=0;overflow=hidden;pointerEvents=1;" parent="rLPBgmUreou9VduvHPSA-117" vertex="1">
          <mxGeometry x="120" width="40" height="40" as="geometry">
            <mxRectangle width="40" height="40" as="alternateBounds" />
          </mxGeometry>
        </mxCell>
        <mxCell id="rLPBgmUreou9VduvHPSA-122" value="&lt;font style=&quot;font-size: 15px&quot;&gt;74&lt;/font&gt;" style="shape=partialRectangle;html=1;whiteSpace=wrap;connectable=0;fillColor=none;top=0;left=0;bottom=0;right=0;overflow=hidden;pointerEvents=1;" parent="rLPBgmUreou9VduvHPSA-117" vertex="1">
          <mxGeometry x="160" width="40" height="40" as="geometry">
            <mxRectangle width="40" height="40" as="alternateBounds" />
          </mxGeometry>
        </mxCell>
        <mxCell id="rLPBgmUreou9VduvHPSA-123" value="" style="shape=table;html=1;whiteSpace=wrap;startSize=0;container=1;collapsible=0;childLayout=tableLayout;rounded=1;sketch=0;fontSize=16;" parent="1" vertex="1">
          <mxGeometry x="611" y="70" width="200" height="40" as="geometry" />
        </mxCell>
        <mxCell id="rLPBgmUreou9VduvHPSA-124" value="" style="shape=partialRectangle;html=1;whiteSpace=wrap;collapsible=0;dropTarget=0;pointerEvents=0;fillColor=none;top=0;left=0;bottom=0;right=0;points=[[0,0.5],[1,0.5]];portConstraint=eastwest;" parent="rLPBgmUreou9VduvHPSA-123" vertex="1">
          <mxGeometry width="200" height="40" as="geometry" />
        </mxCell>
        <mxCell id="rLPBgmUreou9VduvHPSA-125" value="&lt;font style=&quot;font-size: 15px&quot;&gt;0.35&lt;/font&gt;" style="shape=partialRectangle;html=1;whiteSpace=wrap;connectable=0;fillColor=none;top=0;left=0;bottom=0;right=0;overflow=hidden;pointerEvents=1;" parent="rLPBgmUreou9VduvHPSA-124" vertex="1">
          <mxGeometry width="40" height="40" as="geometry">
            <mxRectangle width="40" height="40" as="alternateBounds" />
          </mxGeometry>
        </mxCell>
        <mxCell id="rLPBgmUreou9VduvHPSA-126" value="&lt;font style=&quot;font-size: 14px&quot;&gt;&lt;span style=&quot;font-weight: normal ; font-size: 15px&quot;&gt;0.26&lt;/span&gt;&lt;/font&gt;" style="shape=partialRectangle;html=1;whiteSpace=wrap;connectable=0;fillColor=none;top=0;left=0;bottom=0;right=0;overflow=hidden;pointerEvents=1;fontStyle=1" parent="rLPBgmUreou9VduvHPSA-124" vertex="1">
          <mxGeometry x="40" width="40" height="40" as="geometry">
            <mxRectangle width="40" height="40" as="alternateBounds" />
          </mxGeometry>
        </mxCell>
        <mxCell id="rLPBgmUreou9VduvHPSA-127" value="&lt;font style=&quot;font-size: 15px&quot;&gt;-0.54&lt;/font&gt;" style="shape=partialRectangle;html=1;whiteSpace=wrap;connectable=0;fillColor=none;top=0;left=0;bottom=0;right=0;overflow=hidden;pointerEvents=1;" parent="rLPBgmUreou9VduvHPSA-124" vertex="1">
          <mxGeometry x="80" width="40" height="40" as="geometry">
            <mxRectangle width="40" height="40" as="alternateBounds" />
          </mxGeometry>
        </mxCell>
        <mxCell id="rLPBgmUreou9VduvHPSA-128" value="&lt;font style=&quot;font-size: 15px&quot;&gt;0.67&lt;/font&gt;" style="shape=partialRectangle;html=1;whiteSpace=wrap;connectable=0;fillColor=none;top=0;left=0;bottom=0;right=0;overflow=hidden;pointerEvents=1;" parent="rLPBgmUreou9VduvHPSA-124" vertex="1">
          <mxGeometry x="120" width="40" height="40" as="geometry">
            <mxRectangle width="40" height="40" as="alternateBounds" />
          </mxGeometry>
        </mxCell>
        <mxCell id="rLPBgmUreou9VduvHPSA-129" value="&lt;font style=&quot;font-size: 15px&quot;&gt;0.01&lt;/font&gt;" style="shape=partialRectangle;html=1;whiteSpace=wrap;connectable=0;fillColor=none;top=0;left=0;bottom=0;right=0;overflow=hidden;pointerEvents=1;" parent="rLPBgmUreou9VduvHPSA-124" vertex="1">
          <mxGeometry x="160" width="40" height="40" as="geometry">
            <mxRectangle width="40" height="40" as="alternateBounds" />
          </mxGeometry>
        </mxCell>
        <mxCell id="rLPBgmUreou9VduvHPSA-130" value="" style="shape=curlyBracket;whiteSpace=wrap;html=1;rounded=1;flipH=1;fontSize=15;rotation=-90;strokeWidth=2;" parent="1" vertex="1">
          <mxGeometry x="205" y="-145" width="20" height="390" as="geometry" />
        </mxCell>
        <mxCell id="rLPBgmUreou9VduvHPSA-131" value="" style="shape=curlyBracket;whiteSpace=wrap;html=1;rounded=1;flipH=1;fontSize=15;rotation=-90;strokeWidth=2;" parent="1" vertex="1">
          <mxGeometry x="600" y="-145" width="20" height="390" as="geometry" />
        </mxCell>
        <mxCell id="rLPBgmUreou9VduvHPSA-132" value="&lt;font style=&quot;font-size: 22px&quot;&gt;프레스기 1&lt;/font&gt;" style="text;html=1;align=center;verticalAlign=middle;resizable=0;points=[];autosize=1;strokeColor=none;fillColor=none;fontSize=15;" parent="1" vertex="1">
          <mxGeometry x="155" y="5" width="120" height="30" as="geometry" />
        </mxCell>
        <mxCell id="rLPBgmUreou9VduvHPSA-133" value="&lt;font style=&quot;font-size: 22px&quot;&gt;프레스기 2&lt;/font&gt;" style="text;html=1;align=center;verticalAlign=middle;resizable=0;points=[];autosize=1;strokeColor=none;fillColor=none;fontSize=15;" parent="1" vertex="1">
          <mxGeometry x="550" y="5" width="120" height="30" as="geometry" />
        </mxCell>
        <mxCell id="rLPBgmUreou9VduvHPSA-137" value="" style="shape=table;html=1;whiteSpace=wrap;startSize=0;container=1;collapsible=0;childLayout=tableLayout;rounded=1;sketch=0;fontSize=16;" parent="1" vertex="1">
          <mxGeometry x="94" y="280" width="300" height="60" as="geometry" />
        </mxCell>
        <mxCell id="rLPBgmUreou9VduvHPSA-138" value="" style="shape=partialRectangle;html=1;whiteSpace=wrap;collapsible=0;dropTarget=0;pointerEvents=0;fillColor=none;top=0;left=0;bottom=0;right=0;points=[[0,0.5],[1,0.5]];portConstraint=eastwest;" parent="rLPBgmUreou9VduvHPSA-137" vertex="1">
          <mxGeometry width="300" height="60" as="geometry" />
        </mxCell>
        <mxCell id="rLPBgmUreou9VduvHPSA-139" value="&lt;font style=&quot;font-size: 15px&quot;&gt;31&lt;/font&gt;" style="shape=partialRectangle;html=1;whiteSpace=wrap;connectable=0;fillColor=none;top=0;left=0;bottom=0;right=0;overflow=hidden;pointerEvents=1;" parent="rLPBgmUreou9VduvHPSA-138" vertex="1">
          <mxGeometry width="60" height="60" as="geometry">
            <mxRectangle width="60" height="60" as="alternateBounds" />
          </mxGeometry>
        </mxCell>
        <mxCell id="rLPBgmUreou9VduvHPSA-140" value="&lt;font size=&quot;1&quot;&gt;&lt;span style=&quot;font-weight: normal ; font-size: 15px&quot;&gt;6&lt;/span&gt;&lt;/font&gt;" style="shape=partialRectangle;html=1;whiteSpace=wrap;connectable=0;fillColor=none;top=0;left=0;bottom=0;right=0;overflow=hidden;pointerEvents=1;fontStyle=1" parent="rLPBgmUreou9VduvHPSA-138" vertex="1">
          <mxGeometry x="60" width="60" height="60" as="geometry">
            <mxRectangle width="60" height="60" as="alternateBounds" />
          </mxGeometry>
        </mxCell>
        <mxCell id="rLPBgmUreou9VduvHPSA-141" value="&lt;font style=&quot;font-size: 20px&quot;&gt;...&lt;/font&gt;" style="shape=partialRectangle;html=1;whiteSpace=wrap;connectable=0;fillColor=none;top=0;left=0;bottom=0;right=0;overflow=hidden;pointerEvents=1;" parent="rLPBgmUreou9VduvHPSA-138" vertex="1">
          <mxGeometry x="120" width="60" height="60" as="geometry">
            <mxRectangle width="60" height="60" as="alternateBounds" />
          </mxGeometry>
        </mxCell>
        <mxCell id="rLPBgmUreou9VduvHPSA-142" value="&lt;font style=&quot;font-size: 15px&quot;&gt;87&lt;/font&gt;" style="shape=partialRectangle;html=1;whiteSpace=wrap;connectable=0;fillColor=none;top=0;left=0;bottom=0;right=0;overflow=hidden;pointerEvents=1;" parent="rLPBgmUreou9VduvHPSA-138" vertex="1">
          <mxGeometry x="180" width="60" height="60" as="geometry">
            <mxRectangle width="60" height="60" as="alternateBounds" />
          </mxGeometry>
        </mxCell>
        <mxCell id="rLPBgmUreou9VduvHPSA-143" value="&lt;font style=&quot;font-size: 15px&quot;&gt;16&lt;/font&gt;" style="shape=partialRectangle;html=1;whiteSpace=wrap;connectable=0;fillColor=none;top=0;left=0;bottom=0;right=0;overflow=hidden;pointerEvents=1;" parent="rLPBgmUreou9VduvHPSA-138" vertex="1">
          <mxGeometry x="240" width="60" height="60" as="geometry">
            <mxRectangle width="60" height="60" as="alternateBounds" />
          </mxGeometry>
        </mxCell>
        <mxCell id="rLPBgmUreou9VduvHPSA-144" value="" style="shape=table;html=1;whiteSpace=wrap;startSize=0;container=1;collapsible=0;childLayout=tableLayout;rounded=1;sketch=0;fontSize=16;" parent="1" vertex="1">
          <mxGeometry x="394" y="280" width="300" height="60" as="geometry" />
        </mxCell>
        <mxCell id="rLPBgmUreou9VduvHPSA-145" value="" style="shape=partialRectangle;html=1;whiteSpace=wrap;collapsible=0;dropTarget=0;pointerEvents=0;fillColor=none;top=0;left=0;bottom=0;right=0;points=[[0,0.5],[1,0.5]];portConstraint=eastwest;" parent="rLPBgmUreou9VduvHPSA-144" vertex="1">
          <mxGeometry width="300" height="60" as="geometry" />
        </mxCell>
        <mxCell id="rLPBgmUreou9VduvHPSA-146" value="&lt;font&gt;&lt;font style=&quot;font-size: 15px&quot;&gt;0.51&lt;/font&gt;&lt;br&gt;&lt;/font&gt;" style="shape=partialRectangle;html=1;whiteSpace=wrap;connectable=0;fillColor=none;top=0;left=0;bottom=0;right=0;overflow=hidden;pointerEvents=1;" parent="rLPBgmUreou9VduvHPSA-145" vertex="1">
          <mxGeometry width="60" height="60" as="geometry">
            <mxRectangle width="60" height="60" as="alternateBounds" />
          </mxGeometry>
        </mxCell>
        <mxCell id="rLPBgmUreou9VduvHPSA-147" value="&lt;font size=&quot;1&quot;&gt;&lt;span style=&quot;font-weight: normal ; font-size: 15px&quot;&gt;0.26&lt;/span&gt;&lt;/font&gt;" style="shape=partialRectangle;html=1;whiteSpace=wrap;connectable=0;fillColor=none;top=0;left=0;bottom=0;right=0;overflow=hidden;pointerEvents=1;fontStyle=1" parent="rLPBgmUreou9VduvHPSA-145" vertex="1">
          <mxGeometry x="60" width="60" height="60" as="geometry">
            <mxRectangle width="60" height="60" as="alternateBounds" />
          </mxGeometry>
        </mxCell>
        <mxCell id="rLPBgmUreou9VduvHPSA-148" value="&lt;font style=&quot;font-size: 15px&quot;&gt;-0.14&lt;/font&gt;" style="shape=partialRectangle;html=1;whiteSpace=wrap;connectable=0;fillColor=none;top=0;left=0;bottom=0;right=0;overflow=hidden;pointerEvents=1;" parent="rLPBgmUreou9VduvHPSA-145" vertex="1">
          <mxGeometry x="120" width="60" height="60" as="geometry">
            <mxRectangle width="60" height="60" as="alternateBounds" />
          </mxGeometry>
        </mxCell>
        <mxCell id="rLPBgmUreou9VduvHPSA-149" value="&lt;font style=&quot;font-size: 15px&quot;&gt;0.71&lt;/font&gt;" style="shape=partialRectangle;html=1;whiteSpace=wrap;connectable=0;fillColor=none;top=0;left=0;bottom=0;right=0;overflow=hidden;pointerEvents=1;" parent="rLPBgmUreou9VduvHPSA-145" vertex="1">
          <mxGeometry x="180" width="60" height="60" as="geometry">
            <mxRectangle width="60" height="60" as="alternateBounds" />
          </mxGeometry>
        </mxCell>
        <mxCell id="rLPBgmUreou9VduvHPSA-150" value="&lt;font style=&quot;font-size: 15px&quot;&gt;-0.25&lt;/font&gt;" style="shape=partialRectangle;html=1;whiteSpace=wrap;connectable=0;fillColor=none;top=0;left=0;bottom=0;right=0;overflow=hidden;pointerEvents=1;" parent="rLPBgmUreou9VduvHPSA-145" vertex="1">
          <mxGeometry x="240" width="60" height="60" as="geometry">
            <mxRectangle width="60" height="60" as="alternateBounds" />
          </mxGeometry>
        </mxCell>
        <mxCell id="rLPBgmUreou9VduvHPSA-151" value="" style="shape=curlyBracket;whiteSpace=wrap;html=1;rounded=1;flipH=1;fontSize=15;rotation=90;strokeWidth=2;" parent="1" vertex="1">
          <mxGeometry x="236.5" y="220" width="15" height="285" as="geometry" />
        </mxCell>
        <mxCell id="rLPBgmUreou9VduvHPSA-153" value="&lt;font style=&quot;font-size: 22px&quot;&gt;가열로에 장입할 작업의 순번&lt;/font&gt;" style="text;html=1;align=center;verticalAlign=middle;resizable=0;points=[];autosize=1;strokeColor=none;fillColor=none;fontSize=15;" parent="1" vertex="1">
          <mxGeometry x="94" y="385" width="300" height="30" as="geometry" />
        </mxCell>
        <mxCell id="rLPBgmUreou9VduvHPSA-154" value="&lt;font style=&quot;font-size: 22px&quot;&gt;프레스기 작업 선택 기준&lt;/font&gt;" style="text;html=1;align=center;verticalAlign=middle;resizable=0;points=[];autosize=1;strokeColor=none;fillColor=none;fontSize=15;" parent="1" vertex="1">
          <mxGeometry x="416.88" y="385" width="250" height="30" as="geometry" />
        </mxCell>
        <mxCell id="_bLxRLUnR8zpAvFd7r4C-4" value="" style="line;strokeWidth=4;direction=south;html=1;rotation=-60;strokeColor=#808080;" parent="1" vertex="1">
          <mxGeometry x="536.88" y="41.97" width="10" height="306.94" as="geometry" />
        </mxCell>
        <mxCell id="_bLxRLUnR8zpAvFd7r4C-5" value="" style="line;strokeWidth=4;direction=south;html=1;rotation=-30;strokeColor=#808080;sketch=0;" parent="1" vertex="1">
          <mxGeometry x="59.47" y="109.36" width="5.18" height="170" as="geometry" />
        </mxCell>
        <mxCell id="_bLxRLUnR8zpAvFd7r4C-13" value="" style="shape=curlyBracket;whiteSpace=wrap;html=1;rounded=1;flipH=1;fontSize=15;rotation=90;strokeWidth=2;" parent="1" vertex="1">
          <mxGeometry x="535" y="220" width="15" height="285" as="geometry" />
        </mxCell>
      </root>
    </mxGraphModel>
  </diagram>
</mxfile>
